<mxfile host="app.diagrams.net" modified="2021-07-02T00:42:08.743Z" agent="5.0 (Windows NT 10.0; Win64; x64) AppleWebKit/537.36 (KHTML, like Gecko) Chrome/91.0.4472.106 Safari/537.36" etag="pGNaRIx0ePl8Q2eGAXMi" version="14.8.3" type="github">
  <diagram id="73utSOMPowLe8q3o0h0M" name="Page-1">
    <mxGraphModel dx="1420" dy="745" grid="1" gridSize="10" guides="1" tooltips="1" connect="1" arrows="1" fold="1" page="1" pageScale="1" pageWidth="850" pageHeight="1100" math="0" shadow="0">
      <root>
        <mxCell id="0" />
        <mxCell id="1" parent="0" />
        <mxCell id="9hfM5ltIJWPIcJ2tP9vn-3" value="" style="edgeStyle=orthogonalEdgeStyle;rounded=0;orthogonalLoop=1;jettySize=auto;html=1;" edge="1" parent="1" source="9hfM5ltIJWPIcJ2tP9vn-1" target="9hfM5ltIJWPIcJ2tP9vn-2">
          <mxGeometry relative="1" as="geometry" />
        </mxCell>
        <mxCell id="9hfM5ltIJWPIcJ2tP9vn-12" value="MongoDB (for Persistence)" style="edgeLabel;html=1;align=center;verticalAlign=middle;resizable=0;points=[];" vertex="1" connectable="0" parent="9hfM5ltIJWPIcJ2tP9vn-3">
          <mxGeometry x="-0.1067" y="2" relative="1" as="geometry">
            <mxPoint x="121" y="-58" as="offset" />
          </mxGeometry>
        </mxCell>
        <mxCell id="9hfM5ltIJWPIcJ2tP9vn-1" value="Web Scraper" style="rounded=1;whiteSpace=wrap;html=1;" vertex="1" parent="1">
          <mxGeometry x="70" y="140" width="120" height="80" as="geometry" />
        </mxCell>
        <mxCell id="9hfM5ltIJWPIcJ2tP9vn-5" value="" style="edgeStyle=orthogonalEdgeStyle;rounded=0;orthogonalLoop=1;jettySize=auto;html=1;" edge="1" parent="1" source="9hfM5ltIJWPIcJ2tP9vn-2" target="9hfM5ltIJWPIcJ2tP9vn-4">
          <mxGeometry relative="1" as="geometry" />
        </mxCell>
        <mxCell id="9hfM5ltIJWPIcJ2tP9vn-11" value="Implementing ISTE 612 Algorithms" style="edgeLabel;html=1;align=center;verticalAlign=middle;resizable=0;points=[];" vertex="1" connectable="0" parent="9hfM5ltIJWPIcJ2tP9vn-5">
          <mxGeometry x="0.0941" y="2" relative="1" as="geometry">
            <mxPoint x="27" y="22" as="offset" />
          </mxGeometry>
        </mxCell>
        <mxCell id="9hfM5ltIJWPIcJ2tP9vn-2" value="Database Layer" style="rounded=1;whiteSpace=wrap;html=1;" vertex="1" parent="1">
          <mxGeometry x="300" y="140" width="120" height="80" as="geometry" />
        </mxCell>
        <mxCell id="9hfM5ltIJWPIcJ2tP9vn-7" value="" style="edgeStyle=orthogonalEdgeStyle;rounded=0;orthogonalLoop=1;jettySize=auto;html=1;exitX=0;exitY=0.5;exitDx=0;exitDy=0;" edge="1" parent="1" source="9hfM5ltIJWPIcJ2tP9vn-4">
          <mxGeometry relative="1" as="geometry">
            <mxPoint x="450" y="270" as="sourcePoint" />
            <mxPoint x="410" y="400" as="targetPoint" />
            <Array as="points">
              <mxPoint x="410" y="270" />
            </Array>
          </mxGeometry>
        </mxCell>
        <mxCell id="9hfM5ltIJWPIcJ2tP9vn-16" value="Python (pandas.DataFrame)" style="edgeLabel;html=1;align=center;verticalAlign=middle;resizable=0;points=[];" vertex="1" connectable="0" parent="9hfM5ltIJWPIcJ2tP9vn-7">
          <mxGeometry x="-0.0588" relative="1" as="geometry">
            <mxPoint x="-10" y="50" as="offset" />
          </mxGeometry>
        </mxCell>
        <mxCell id="9hfM5ltIJWPIcJ2tP9vn-9" style="edgeStyle=orthogonalEdgeStyle;rounded=0;orthogonalLoop=1;jettySize=auto;html=1;" edge="1" parent="1" source="9hfM5ltIJWPIcJ2tP9vn-4" target="9hfM5ltIJWPIcJ2tP9vn-8">
          <mxGeometry relative="1" as="geometry" />
        </mxCell>
        <mxCell id="9hfM5ltIJWPIcJ2tP9vn-13" value="REST API / GraphQL" style="edgeLabel;html=1;align=center;verticalAlign=middle;resizable=0;points=[];" vertex="1" connectable="0" parent="9hfM5ltIJWPIcJ2tP9vn-9">
          <mxGeometry x="0.1143" y="4" relative="1" as="geometry">
            <mxPoint x="-4" y="52" as="offset" />
          </mxGeometry>
        </mxCell>
        <mxCell id="9hfM5ltIJWPIcJ2tP9vn-4" value="&quot;Algorithm&quot; Layer" style="rounded=1;whiteSpace=wrap;html=1;" vertex="1" parent="1">
          <mxGeometry x="480" y="230" width="120" height="80" as="geometry" />
        </mxCell>
        <mxCell id="9hfM5ltIJWPIcJ2tP9vn-6" value="Power BI" style="rounded=1;whiteSpace=wrap;html=1;" vertex="1" parent="1">
          <mxGeometry x="340" y="400" width="120" height="80" as="geometry" />
        </mxCell>
        <mxCell id="9hfM5ltIJWPIcJ2tP9vn-8" value="Custom&lt;br&gt;Website" style="rounded=1;whiteSpace=wrap;html=1;" vertex="1" parent="1">
          <mxGeometry x="610" y="400" width="120" height="80" as="geometry" />
        </mxCell>
        <mxCell id="9hfM5ltIJWPIcJ2tP9vn-17" value="Option A" style="text;html=1;align=center;verticalAlign=middle;resizable=0;points=[];autosize=1;strokeColor=none;" vertex="1" parent="1">
          <mxGeometry x="370" y="490" width="60" height="20" as="geometry" />
        </mxCell>
        <mxCell id="9hfM5ltIJWPIcJ2tP9vn-18" value="Option B" style="text;html=1;align=center;verticalAlign=middle;resizable=0;points=[];autosize=1;strokeColor=none;" vertex="1" parent="1">
          <mxGeometry x="630" y="490" width="60" height="20" as="geometry" />
        </mxCell>
      </root>
    </mxGraphModel>
  </diagram>
</mxfile>
